<svg xmlns="http://www.w3.org/2000/svg" xmlns:xlink="http://www.w3.org/1999/xlink" class="edit-svg" version="1.1" x="0px" y="0px" viewBox="0 0 100 100" enable-background="new 0 0 100 100" xml:space="preserve"><path d="M79.567,45.974V91.11c0,1.104-0.896,2-2,2H8.931c-1.104,0-2-0.896-2-2V22.146c0-1.104,0.896-2,2-2h44.808  c1.104,0,2,0.896,2,2s-0.896,2-2,2H10.931V89.11h64.637V45.974c0-1.104,0.896-2,2-2S79.567,44.869,79.567,45.974z M89.432,28.089  l-35.16,35.16C54.08,63.44,29.023,73.534,29.023,73.534c-0.24,0.097-0.493,0.144-0.743,0.144c-0.521,0-1.032-0.203-1.414-0.586  c-0.566-0.565-0.74-1.415-0.442-2.157c0,0,10.095-25.057,10.286-25.248l32.142-32.141c0.002-0.002,0.003-0.004,0.005-0.005  l3.014-3.014c2.345-2.346,5.464-3.638,8.78-3.638c3.317,0,6.437,1.292,8.781,3.638C94.273,15.369,94.273,23.247,89.432,28.089z   M31.874,68.084l6.675-2.673l-4.001-4.001L31.874,68.084z M49.3,61.105L38.854,50.658l-3.497,8.732l5.212,5.212L49.3,61.105z   M78.702,33.162L66.797,21.257L40.952,47.101l11.906,11.905L78.702,33.162z M82.176,29.688L70.271,17.783l-2.06,2.06l11.905,11.905  L82.176,29.688z M86.604,13.355c-1.59-1.59-3.704-2.466-5.953-2.466c-2.248,0-4.362,0.876-5.952,2.466l-1.6,1.6L85.004,26.86  l1.6-1.6C89.886,21.979,89.886,16.638,86.604,13.355z"/></svg>